HIERARCHY
ROOT Hips
{
	OFFSET 0.000000 0.000000 0.000000
	CHANNELS 6 Xposition Yposition Zposition Zrotation Yrotation Xrotation 
	JOINT LeftUpLeg_virtual
	{
		OFFSET 0.000000 0.000000 0.000000
		CHANNELS 3 Zrotation Yrotation Xrotation
		JOINT LeftUpLeg
		{
			OFFSET 8.479694 -4.795517 -0.379053
			CHANNELS 3 Zrotation Yrotation Xrotation
			JOINT LeftLeg
			{
				OFFSET 0.485052 -32.551468 0.112863
				CHANNELS 3 Zrotation Yrotation Xrotation
				JOINT LeftFoot
				{
					OFFSET 0.438033 -32.635670 -3.012641
					CHANNELS 3 Zrotation Yrotation Xrotation
					JOINT LeftToeBase
					{
						OFFSET 0.970169 -13.225353 11.864223
						CHANNELS 3 Zrotation Yrotation Xrotation
						End Site
						{
							OFFSET 0.000000 0.000000 0.000000
						}
					}
				}
			}
		}
	}
	JOINT RightUpLeg_virtual
	{
		OFFSET 0.000000 0.000000 0.000000
		CHANNELS 3 Zrotation Yrotation Xrotation
		JOINT RightUpLeg
		{
			OFFSET -8.479694 -4.795517 -0.379053
			CHANNELS 3 Zrotation Yrotation Xrotation
			JOINT RightLeg
			{
				OFFSET -0.484100 -32.551483 0.112903
				CHANNELS 3 Zrotation Yrotation Xrotation
				JOINT RightFoot
				{
					OFFSET -0.438985 -32.635651 -3.012681
					CHANNELS 3 Zrotation Yrotation Xrotation
					JOINT RightToeBase
					{
						OFFSET -0.970169 -13.225354 11.864223
						CHANNELS 3 Zrotation Yrotation Xrotation
						End Site
						{
							OFFSET 0.000000 0.000000 0.000000
						}
					}
				}
			}
		}
	}
	JOINT Spine_virtual
	{
		OFFSET 0.000000 0.000000 0.000000
		CHANNELS 3 Zrotation Yrotation Xrotation
		JOINT Spine
		{
			OFFSET 0.000000 7.722015 1.166203
			CHANNELS 3 Zrotation Yrotation Xrotation
			JOINT Spine1
			{
				OFFSET 0.000000 12.024086 0.248766
				CHANNELS 3 Zrotation Yrotation Xrotation
				JOINT Spine2
				{
					OFFSET -0.000000 11.503036 -0.491240
					CHANNELS 3 Zrotation Yrotation Xrotation
					JOINT Neck_virtual
					{
						OFFSET 0.000000 0.000000 0.000000
						CHANNELS 3 Zrotation Yrotation Xrotation
						JOINT Neck
						{
							OFFSET 0.000000 18.430687 -3.123054
							CHANNELS 3 Zrotation Yrotation Xrotation
							JOINT Head
							{
								OFFSET -0.000000 9.051071 1.034021
								CHANNELS 3 Zrotation Yrotation Xrotation
								End Site
								{
									OFFSET 0.000000 0.000000 0.000000
								}
							}
						}
					}
					JOINT LeftShoulder_virtual
					{
						OFFSET 0.000000 0.000000 0.000000
						CHANNELS 3 Zrotation Yrotation Xrotation
						JOINT LeftShoulder
						{
							OFFSET 6.197824 13.665230 -4.064723
							CHANNELS 3 Zrotation Yrotation Xrotation
							JOINT LeftArm
							{
								OFFSET 7.778132 -0.187073 -1.709282
								CHANNELS 3 Zrotation Yrotation Xrotation
								JOINT LeftForeArm
								{
									OFFSET 21.954697 0.000000 -2.041093
									CHANNELS 3 Zrotation Yrotation Xrotation
									JOINT LeftHand
									{
										OFFSET 22.992908 0.000000 -0.870901
										CHANNELS 3 Zrotation Yrotation Xrotation
										End Site
										{
											OFFSET 0.000000 0.000000 0.000000
										}
									}
								}
							}
						}
					}
					JOINT RightShoulder_virtual
					{
						OFFSET 0.000000 0.000000 0.000000
						CHANNELS 3 Zrotation Yrotation Xrotation
						JOINT RightShoulder
						{
							OFFSET -6.197824 13.665230 -4.064723
							CHANNELS 3 Zrotation Yrotation Xrotation
							JOINT RightArm
							{
								OFFSET -7.778132 -0.187073 -1.709282
								CHANNELS 3 Zrotation Yrotation Xrotation
								JOINT RightForeArm
								{
									OFFSET -21.954697 0.000000 -2.041093
									CHANNELS 3 Zrotation Yrotation Xrotation
									JOINT RightHand
									{
										OFFSET -22.992908 0.000000 -0.870901
										CHANNELS 3 Zrotation Yrotation Xrotation
										End Site
										{
											OFFSET 0.000000 0.000000 0.000000
										}
									}
								}
							}
						}
					}
				}
			}
		}
	}
}
MOTION
Frames: 13
Frame Time: 0.033333
37.241745 77.961693 -15.198639 179.917346 -3.379950 179.835029 -2.616540 -0.573265 9.309124 10.025791 3.169804 -40.504183 6.090110 3.367180 25.910674 -6.473386 -3.206291 -2.578846 0.000000 0.000000 0.000000 2.068669 -0.200398 9.744493 4.991599 1.942764 -31.189342 0.877113 4.503798 30.076431 5.969275 6.929229 -13.963438 0.000000 0.000000 0.000000 2.419076 1.883706 -2.098753 1.188078 0.406217 -3.568301 0.623589 -3.017095 10.636861 0.006756 0.261863 -0.010490 0.727083 -2.290758 10.976918 -6.725021 2.634478 -5.238476 0.000000 0.000000 0.000000 2.438482 -1.407103 7.815105 6.426059 -3.310461 1.248465 17.131663 -39.642913 -24.207667 -29.732111 -77.455206 34.596868 0.000000 0.000000 0.000000 -2.120482 0.216268 7.163658 21.172611 4.742248 1.987345 38.179115 1.641523 3.125801 -176.974655 71.640468 -179.714107 0.000000 0.000000 0.000000 
36.956070 78.058495 -15.351425 179.915543 -4.193032 179.898112 -2.793564 -1.030226 9.470338 9.859936 3.109155 -40.544344 6.194559 3.395517 25.514389 -6.648474 -3.190580 -2.238798 0.000000 0.000000 0.000000 2.057671 -0.634679 9.869173 4.718759 1.838938 -31.243901 0.846877 4.462716 30.201157 5.908223 6.998267 -13.806749 0.000000 0.000000 0.000000 2.266415 1.593864 -1.796917 0.846760 0.378863 -3.252885 0.603099 -2.972214 10.622978 0.044802 0.286098 -0.052481 0.718828 -2.227855 11.121816 -7.020980 2.434345 -5.175384 0.000000 0.000000 0.000000 2.478983 -1.429398 7.758027 7.357639 -2.949702 1.185047 23.817513 -42.762909 -32.367536 -73.178585 -83.665624 79.372085 0.000000 0.000000 0.000000 -2.078025 0.331132 7.212672 21.520686 5.237556 2.211822 37.828982 1.718268 3.013928 -177.335958 70.334146 179.932987 0.000000 0.000000 0.000000 
36.681786 78.139557 -15.599708 -179.967043 -5.133893 179.898549 -3.038371 -1.216571 9.640440 9.834363 3.096942 -40.623411 6.284130 3.370432 25.081107 -6.916428 -3.442503 -2.031992 0.000000 0.000000 0.000000 2.149549 -0.962067 10.158611 4.435420 1.728366 -31.424399 0.782363 4.350059 30.343307 5.748246 6.965548 -13.826990 0.000000 0.000000 0.000000 2.301473 1.344225 -1.418615 0.480476 0.408555 -2.880715 0.646432 -2.945137 10.633772 -0.000710 0.307574 -0.042651 0.658737 -2.153024 11.164433 -7.054918 2.332400 -5.139734 0.000000 0.000000 0.000000 2.406952 -1.571582 7.684683 8.108790 -1.928809 0.894303 30.847487 -43.775676 -43.974691 -134.349821 -82.260258 141.154110 0.000000 0.000000 0.000000 -2.119975 0.298323 7.223035 22.046222 5.771563 2.453474 37.507178 2.493360 3.155396 -178.550297 68.957358 178.837329 0.000000 0.000000 0.000000 
36.331314 78.185272 -15.931475 -179.836340 -5.694789 179.862636 -3.377038 -1.222783 9.882318 9.832266 3.275743 -40.652999 6.336885 3.448408 24.812715 -7.137047 -3.841348 -2.056022 0.000000 0.000000 0.000000 2.302589 -1.016420 10.494790 4.106804 1.814855 -31.629759 0.697513 4.397818 30.676418 5.557082 6.875987 -14.011358 0.000000 0.000000 0.000000 2.473058 1.133648 -1.032507 0.169087 0.487366 -2.455030 0.552240 -2.974980 10.691313 -0.009015 0.231615 -0.041518 0.496684 -2.198158 11.253742 -6.922132 2.444960 -5.133582 0.000000 0.000000 0.000000 2.280727 -1.430830 7.641724 8.360092 -0.375959 0.446971 35.760726 -43.215427 -55.587717 -155.185668 -78.357405 162.035200 0.000000 0.000000 0.000000 -2.296130 0.360861 7.385577 22.721278 6.508225 2.405414 37.452120 3.508041 3.980063 -178.428652 67.912229 179.210080 0.000000 0.000000 0.000000 
35.771149 78.193634 -16.304363 -179.612610 -6.059889 179.770319 -3.557598 -1.159669 10.068541 9.861684 3.296703 -40.549713 5.952167 3.337949 24.755081 -7.155055 -3.618945 -2.343130 0.000000 0.000000 0.000000 2.485076 -1.087576 10.771998 3.736790 2.137260 -31.718712 0.575889 4.487596 31.136756 5.346301 6.725164 -14.578460 0.000000 0.000000 0.000000 2.826081 1.013662 -0.761661 -0.008591 0.722772 -1.980728 0.459040 -2.918762 10.798108 -0.028931 0.080166 -0.046772 0.335904 -2.221819 11.301346 -6.324605 2.227080 -5.131412 0.000000 0.000000 0.000000 2.041164 -1.599890 7.710193 8.038709 1.281663 -0.051951 37.833227 -42.361345 -65.037539 -163.601581 -76.009883 170.031494 0.000000 0.000000 0.000000 -2.542361 0.258346 7.317927 23.441764 6.903879 2.383600 37.799817 4.515246 4.648041 -178.750354 67.258690 179.170096 0.000000 0.000000 0.000000 
34.996376 78.183205 -16.692322 -179.750621 -6.064780 179.709654 -4.320521 -1.207486 10.168599 10.197566 3.361651 -40.272448 5.505585 3.483657 24.911576 -6.928146 -3.421679 -2.814978 0.000000 0.000000 0.000000 2.404916 -1.169511 10.958129 3.155125 2.576894 -31.720847 0.360551 4.953501 31.716892 5.209067 6.537091 -15.480518 0.000000 0.000000 0.000000 3.006351 0.718765 -0.703627 -0.240743 0.823749 -1.489086 0.278077 -3.048600 10.934831 -0.021676 0.177151 -0.021876 0.216578 -2.114187 11.418019 -5.849452 2.138698 -5.137515 0.000000 0.000000 0.000000 1.930412 -1.523120 7.789837 7.092483 3.009727 -0.465958 36.779797 -42.106282 -71.387348 -168.678065 -75.225122 174.399359 0.000000 0.000000 0.000000 -2.609598 0.301237 7.376708 24.165634 7.272786 2.395631 38.136911 5.592535 5.360996 -179.058545 67.159119 179.178934 0.000000 0.000000 0.000000 
34.048798 78.167831 -17.122065 -179.746182 -6.005805 179.662088 -4.274658 -1.081201 10.111303 9.460993 3.353377 -39.965079 5.251915 3.633095 25.237103 -6.589578 -3.280342 -3.458873 0.000000 0.000000 0.000000 2.287732 -1.322010 11.078039 2.563154 3.155327 -31.617000 0.228886 5.560525 32.307208 5.246812 6.383238 -16.398004 0.000000 0.000000 0.000000 3.249436 0.607850 -0.765537 -0.250537 1.013500 -1.043143 0.174519 -3.155316 11.107978 -0.041486 0.104230 -0.058396 0.114251 -2.370951 11.609108 -5.193890 1.968915 -5.235250 0.000000 0.000000 0.000000 1.812402 -1.617113 7.965289 6.044935 4.438611 -0.883294 33.264503 -42.217932 -74.287938 -171.565063 -76.447869 176.452227 0.000000 0.000000 0.000000 -2.731366 0.201197 7.560085 24.704603 7.347313 2.184835 38.846721 6.285722 6.266290 -178.756542 67.264570 179.774049 0.000000 0.000000 0.000000 
32.988838 78.164581 -17.630737 -179.628962 -5.920975 179.588035 -3.302571 -0.746283 10.040659 7.542347 3.241229 -39.595324 5.283393 3.754877 25.534695 -6.344237 -3.354047 -4.091980 0.000000 0.000000 0.000000 2.141325 -1.216875 11.328091 1.983337 3.747265 -31.471357 0.014129 5.790530 32.779393 5.494250 6.315158 -17.182958 0.000000 0.000000 0.000000 3.482260 0.558793 -0.858144 -0.040553 1.202818 -0.692742 0.132012 -3.303790 11.244739 -0.050915 0.170144 -0.028312 0.089944 -2.371545 11.737924 -4.409892 1.586271 -5.297498 0.000000 0.000000 0.000000 1.726743 -1.785698 8.179747 4.987801 5.353979 -1.298452 27.672696 -41.960519 -73.624938 -173.639063 -79.650633 177.725306 0.000000 0.000000 0.000000 -2.793070 0.056506 7.560310 24.847728 7.120504 2.090236 39.902440 6.444223 7.202332 -178.412683 67.369803 -179.666842 0.000000 0.000000 0.000000 
31.872450 78.180832 -18.257835 -179.701662 -5.774218 179.632746 -2.997037 -0.398549 10.074917 6.112115 3.213081 -39.258336 5.408275 3.959211 25.751625 -6.128624 -3.529989 -4.629843 0.000000 0.000000 0.000000 1.835366 -1.215866 11.638025 1.409409 4.047154 -31.398048 -0.137122 5.927759 33.052877 5.964738 6.308101 -17.472869 0.000000 0.000000 0.000000 3.512037 0.732334 -0.976726 0.258506 1.580050 -0.512845 0.117358 -3.439165 11.332214 -0.018022 -0.063368 -0.069725 0.034312 -2.465687 11.864119 -3.760198 1.127223 -5.491703 0.000000 0.000000 0.000000 1.653040 -1.967035 8.383605 4.239427 5.865876 -1.414650 20.785990 -40.535247 -69.911972 -174.709709 -84.259051 178.222544 0.000000 0.000000 0.000000 -2.908784 -0.032511 7.607005 24.571269 6.819984 1.910023 41.206863 6.199847 7.829970 -177.944951 67.652976 -179.118200 0.000000 0.000000 0.000000 
30.724398 78.210884 -19.016310 -179.720118 -5.563117 179.740786 -2.933485 -0.152051 10.250858 5.051459 3.231866 -38.960123 5.733290 4.634716 25.901240 -5.985741 -3.825757 -5.030130 0.000000 0.000000 0.000000 1.516670 -1.081776 12.052268 0.779383 4.197681 -31.336006 -0.276104 6.215898 33.145498 6.618663 6.360147 -17.322548 0.000000 0.000000 0.000000 3.504670 0.655293 -1.113478 0.650420 1.803619 -0.478411 0.113301 -3.358868 11.318787 -0.013418 0.062735 -0.043457 0.070380 -2.548274 11.941784 -3.170530 0.818461 -5.512244 0.000000 0.000000 0.000000 1.579070 -2.097680 8.565896 3.869890 5.874381 -1.403977 13.950227 -38.198574 -64.039970 -172.752628 -89.681019 176.076690 0.000000 0.000000 0.000000 -2.951352 -0.180286 7.632597 23.833682 6.372715 1.967307 42.538449 5.712995 8.128853 -177.320426 68.057931 -178.594134 0.000000 0.000000 0.000000 
29.587442 78.258659 -19.870388 -179.719394 -5.370865 179.941238 -2.923370 -0.024860 10.488482 4.092155 3.223661 -38.742182 6.214317 5.675010 26.072869 -5.940891 -4.209580 -5.402897 0.000000 0.000000 0.000000 1.313108 -0.917049 12.432149 0.158094 4.334679 -31.355944 -0.337062 6.549681 33.301851 7.389454 6.521367 -17.081021 0.000000 0.000000 0.000000 3.554845 0.727522 -1.324800 1.053139 1.961998 -0.615072 0.050276 -3.365967 11.221252 -0.048188 0.025520 0.008632 0.103166 -2.567912 12.014246 -2.685322 0.341226 -5.438568 0.000000 0.000000 0.000000 1.479223 -2.145540 8.727715 3.844089 5.452050 -1.088520 8.401215 -35.559440 -56.635481 1.647755 -85.751072 2.002100 0.000000 0.000000 0.000000 -2.889907 -0.297065 7.616953 23.132275 6.055760 1.979841 43.678739 4.972046 8.233358 -175.823795 68.665422 -177.369016 0.000000 0.000000 0.000000 
28.499191 78.312096 -20.776131 -179.772601 -5.199981 -179.775223 -2.914916 -0.040750 10.699110 3.234815 3.175152 -38.582263 6.743094 6.671993 26.546464 -5.824097 -4.517173 -6.207315 0.000000 0.000000 0.000000 1.115901 -0.750249 12.734873 -0.405895 4.357803 -31.387287 -0.443169 6.835419 33.712198 8.105295 6.665774 -17.107962 0.000000 0.000000 0.000000 3.572005 0.654581 -1.664319 1.358226 2.215066 -0.868043 0.007968 -3.456123 11.056559 -0.029876 -0.062053 0.010186 0.025316 -2.544902 11.989455 -2.505758 0.101239 -5.391385 0.000000 0.000000 0.000000 1.411118 -2.084006 8.755886 4.085969 4.593283 -0.747342 4.813402 -33.604804 -48.272236 -1.972858 -83.467869 6.496497 0.000000 0.000000 0.000000 -2.950164 -0.217239 7.593710 22.219323 5.803545 2.116160 44.798156 4.064754 8.303506 -174.886516 69.424918 -176.838884 0.000000 0.000000 0.000000 
27.484350 78.350693 -21.627102 -179.755935 -5.119650 -179.564458 -2.909725 -0.047834 10.843473 2.444423 3.128120 -38.434984 7.202135 7.353777 27.054793 -5.701779 -4.744322 -7.048694 0.000000 0.000000 0.000000 0.883565 -0.721840 12.914226 -0.817494 4.321478 -31.339684 -0.540697 7.039742 34.155932 8.767927 6.796402 -16.883367 0.000000 0.000000 0.000000 3.696979 0.650992 -2.052335 1.532540 2.248259 -1.116802 -0.039259 -3.457837 10.885826 -0.035018 -0.086043 0.065956 -0.002617 -2.613396 11.961056 -2.399437 -0.096147 -5.253065 0.000000 0.000000 0.000000 1.337514 -2.072637 8.703723 4.704345 3.450985 -0.116543 3.602116 -33.178757 -40.073280 -7.223256 -84.060989 12.973737 0.000000 0.000000 0.000000 -2.913875 -0.246711 7.526786 21.386415 5.637017 2.312197 45.701257 3.121335 8.529897 -174.299119 70.429113 -176.720462 0.000000 0.000000 0.000000 
